<?xml version="1.0" encoding="UTF-8"?>
<svg xmlns="http://www.w3.org/2000/svg" xmlns:xlink="http://www.w3.org/1999/xlink" width="16px" height="16px" viewBox="0 0 64 64" version="1.1">
<g id="surface1">
<path style=" stroke:none;fill-rule:nonzero;fill:rgb(0%,0%,0%);fill-opacity:1;" d="M 63.097656 19.796875 C 62.578125 19.125 61.710938 18.726562 60.777344 18.726562 L 50.851562 18.726562 L 39.714844 7.585938 C 39.308594 7.179688 38.648438 7.179688 38.242188 7.585938 C 37.832031 7.992188 37.832031 8.652344 38.242188 9.058594 L 47.90625 18.726562 L 16.023438 18.726562 L 25.6875 9.058594 C 26.09375 8.652344 26.09375 7.992188 25.6875 7.585938 C 25.28125 7.179688 24.621094 7.179688 24.214844 7.585938 L 13.074219 18.726562 L 3.148438 18.726562 C 2.214844 18.726562 1.351562 19.125 0.832031 19.796875 C 0.398438 20.355469 0.25 21.058594 0.421875 21.722656 L 9.007812 54.75 C 9.296875 55.867188 10.417969 56.648438 11.734375 56.648438 L 52.191406 56.648438 C 53.507812 56.648438 54.628906 55.867188 54.921875 54.75 L 63.507812 21.722656 C 63.679688 21.058594 63.53125 20.355469 63.097656 19.796875 Z M 61.488281 21.199219 L 52.902344 54.222656 C 52.867188 54.363281 52.59375 54.5625 52.191406 54.5625 L 11.734375 54.5625 C 11.335938 54.5625 11.0625 54.363281 11.023438 54.222656 L 2.441406 21.199219 C 2.433594 21.179688 2.425781 21.144531 2.480469 21.070312 C 2.574219 20.949219 2.804688 20.808594 3.152344 20.808594 L 60.777344 20.808594 C 61.121094 20.808594 61.355469 20.949219 61.449219 21.070312 C 61.503906 21.144531 61.496094 21.179688 61.488281 21.199219 Z M 61.488281 21.199219 "/>
<path style=" stroke:none;fill-rule:nonzero;fill:rgb(0%,0%,0%);fill-opacity:1;" d="M 31.964844 27.285156 C 31.386719 27.285156 30.921875 27.75 30.921875 28.324219 L 30.921875 47.941406 C 30.921875 48.515625 31.386719 48.984375 31.964844 48.984375 C 32.539062 48.984375 33.007812 48.519531 33.007812 47.941406 L 33.007812 28.324219 C 33.007812 27.75 32.539062 27.285156 31.964844 27.285156 Z M 31.964844 27.285156 "/>
<path style=" stroke:none;fill-rule:nonzero;fill:rgb(0%,0%,0%);fill-opacity:1;" d="M 42.386719 27.285156 C 41.808594 27.285156 41.34375 27.75 41.34375 28.324219 L 41.34375 47.941406 C 41.34375 48.515625 41.808594 48.984375 42.386719 48.984375 C 42.960938 48.984375 43.429688 48.519531 43.429688 47.941406 L 43.429688 28.324219 C 43.429688 27.75 42.960938 27.285156 42.386719 27.285156 Z M 42.386719 27.285156 "/>
<path style=" stroke:none;fill-rule:nonzero;fill:rgb(0%,0%,0%);fill-opacity:1;" d="M 21.542969 27.285156 C 20.964844 27.285156 20.5 27.75 20.5 28.324219 L 20.5 47.941406 C 20.5 48.515625 20.964844 48.984375 21.542969 48.984375 C 22.117188 48.984375 22.585938 48.519531 22.585938 47.941406 L 22.585938 28.324219 C 22.585938 27.75 22.117188 27.285156 21.542969 27.285156 Z M 21.542969 27.285156 "/>
</g>
</svg>
